<svg xmlns="http://www.w3.org/2000/svg" xmlns:xlink="http://www.w3.org/1999/xlink" width="500" zoomAndPan="magnify" viewBox="0 0 375 374.999991" height="500" preserveAspectRatio="xMidYMid meet" version="1.0"><defs><g/><clipPath id="6c8e2d5661"><path d="M 161.496094 137.699219 L 269.03125 137.699219 L 269.03125 245.234375 L 161.496094 245.234375 Z M 161.496094 137.699219 " clip-rule="nonzero"/></clipPath><clipPath id="1e5ca7eaa0"><path d="M 215.265625 137.699219 C 185.570312 137.699219 161.496094 161.769531 161.496094 191.464844 C 161.496094 221.160156 185.570312 245.234375 215.265625 245.234375 C 244.960938 245.234375 269.03125 221.160156 269.03125 191.464844 C 269.03125 161.769531 244.960938 137.699219 215.265625 137.699219 " clip-rule="nonzero"/></clipPath><clipPath id="143f849ed1"><path d="M 164.53125 140.945312 L 265.78125 140.945312 L 265.78125 242.195312 L 164.53125 242.195312 Z M 164.53125 140.945312 " clip-rule="nonzero"/></clipPath></defs><g fill="#006b37" fill-opacity="1"><g transform="translate(53.964845, 202.513038)"><g><path d="M 11.566406 -11.6875 C 11.566406 -12.09375 11.605469 -12.5 11.605469 -12.90625 C 11.605469 -14.324219 10.957031 -15.21875 9.863281 -15.21875 C 8.929688 -15.21875 8.441406 -14.609375 7.710938 -14.121094 C 7.304688 -13.839844 6.816406 -13.59375 6.410156 -13.269531 C 6.289062 -13.71875 6.128906 -14.203125 6.128906 -14.609375 C 6.128906 -14.691406 6.128906 -14.8125 6.167969 -14.894531 C 6.859375 -18.585938 8.238281 -20.453125 8.5625 -25.648438 C 8.5625 -26.582031 7.871094 -27.351562 7.222656 -27.351562 C 5.152344 -27.351562 4.019531 -25.039062 4.019531 -22.847656 C 4.019531 -22.035156 4.300781 -21.46875 4.300781 -20.820312 C 4.300781 -20.574219 4.261719 -20.332031 4.21875 -20.089844 C 3.855469 -17.9375 3.410156 -17.9375 3.042969 -15.746094 C 2.558594 -12.824219 2.027344 -9.863281 1.625 -6.898438 C 1.296875 -5.195312 0.8125 -3.328125 0.8125 -1.664062 C 0.8125 -0.8125 1.378906 -0.242188 1.90625 -0.242188 C 2.636719 -0.242188 3.734375 -1.867188 3.894531 -2.71875 C 4.667969 -6.410156 6.289062 -9.738281 8.480469 -12.742188 C 8.804688 -13.109375 9.332031 -13.269531 9.738281 -13.472656 C 9.941406 -12.988281 10.226562 -12.582031 10.226562 -12.175781 C 10.226562 -9.292969 9.007812 -6.613281 7.671875 -4.21875 C 7.304688 -3.53125 5.234375 -3.53125 5.277344 -2.71875 C 5.316406 -1.949219 5.679688 -1.21875 5.804688 -0.445312 C 6.613281 -0.769531 7.75 -1.054688 8.238281 -1.785156 C 10.308594 -4.75 11.527344 -7.996094 11.566406 -11.6875 Z M 11.566406 -11.6875 "/></g></g></g><g fill="#006b37" fill-opacity="1"><g transform="translate(66.788762, 202.513038)"><g><path d="M 0 -2.273438 C 0.0820312 -2.273438 0.121094 -2.191406 0.121094 -2.191406 L 0.121094 -1.90625 C 0.121094 -1.296875 0.730469 -0.609375 1.097656 -0.0820312 C 1.664062 -0.367188 2.558594 -0.8125 2.757812 -1.582031 C 3.652344 -5.113281 4.546875 -8.726562 5.355469 -12.296875 L 5.355469 -12.5 C 5.355469 -13.390625 4.667969 -14.164062 3.734375 -14.164062 C 1.015625 -14.164062 1.460938 -9.984375 1.097656 -7.953125 C 0.730469 -6.007812 0.40625 -4.179688 0 -2.273438 Z M 3.773438 -19.765625 C 4.019531 -19.5625 4.789062 -18.707031 5.03125 -18.707031 C 6.046875 -18.707031 6.816406 -21.023438 6.816406 -20.859375 C 6.816406 -21.46875 6.25 -21.792969 5.480469 -21.792969 C 4.464844 -21.792969 3.816406 -21.226562 3.773438 -19.765625 Z M 3.773438 -19.765625 "/></g></g></g><g fill="#006b37" fill-opacity="1"><g transform="translate(73.606533, 202.513038)"><g><path d="M 11.566406 -11.6875 C 11.566406 -12.09375 11.605469 -12.5 11.605469 -12.90625 C 11.605469 -14.324219 10.957031 -15.21875 9.863281 -15.21875 C 8.929688 -15.21875 8.441406 -14.609375 7.710938 -14.121094 C 7.304688 -13.839844 6.816406 -13.59375 6.410156 -13.269531 C 6.289062 -13.71875 6.128906 -14.203125 6.128906 -14.609375 C 6.128906 -14.691406 6.128906 -14.8125 6.167969 -14.894531 C 6.859375 -18.585938 8.238281 -20.453125 8.5625 -25.648438 C 8.5625 -26.582031 7.871094 -27.351562 7.222656 -27.351562 C 5.152344 -27.351562 4.019531 -25.039062 4.019531 -22.847656 C 4.019531 -22.035156 4.300781 -21.46875 4.300781 -20.820312 C 4.300781 -20.574219 4.261719 -20.332031 4.21875 -20.089844 C 3.855469 -17.9375 3.410156 -17.9375 3.042969 -15.746094 C 2.558594 -12.824219 2.027344 -9.863281 1.625 -6.898438 C 1.296875 -5.195312 0.8125 -3.328125 0.8125 -1.664062 C 0.8125 -0.8125 1.378906 -0.242188 1.90625 -0.242188 C 2.636719 -0.242188 3.734375 -1.867188 3.894531 -2.71875 C 4.667969 -6.410156 6.289062 -9.738281 8.480469 -12.742188 C 8.804688 -13.109375 9.332031 -13.269531 9.738281 -13.472656 C 9.941406 -12.988281 10.226562 -12.582031 10.226562 -12.175781 C 10.226562 -9.292969 9.007812 -6.613281 7.671875 -4.21875 C 7.304688 -3.53125 5.234375 -3.53125 5.277344 -2.71875 C 5.316406 -1.949219 5.679688 -1.21875 5.804688 -0.445312 C 6.613281 -0.769531 7.75 -1.054688 8.238281 -1.785156 C 10.308594 -4.75 11.527344 -7.996094 11.566406 -11.6875 Z M 11.566406 -11.6875 "/></g></g></g><g fill="#006b37" fill-opacity="1"><g transform="translate(86.43045, 202.513038)"><g><path d="M 0.8125 -3.003906 C 1.015625 -1.625 1.296875 -0.242188 2.394531 -0.242188 C 4.300781 -0.242188 6.085938 -3.773438 6.085938 -5.558594 C 6.085938 -5.84375 5.480469 -6.332031 5.398438 -6.289062 C 5.152344 -6.210938 4.949219 -6.167969 4.789062 -6.167969 C 4.421875 -6.167969 4.34375 -6.371094 4.34375 -6.695312 C 4.34375 -6.941406 4.421875 -7.222656 4.464844 -7.46875 C 5.480469 -13.839844 6.777344 -20.046875 7.996094 -26.417969 C 7.996094 -27.554688 7.75 -28.570312 6.695312 -28.691406 C 5.195312 -28.691406 4.910156 -25.484375 4.585938 -23.902344 C 3.164062 -17.003906 1.542969 -10.023438 0.8125 -3.003906 Z M 0.8125 -3.003906 "/></g></g></g><g fill="#006b37" fill-opacity="1"><g transform="translate(94.425109, 202.513038)"><g><path d="M 0 -2.273438 C 0.0820312 -2.273438 0.121094 -2.191406 0.121094 -2.191406 L 0.121094 -1.90625 C 0.121094 -1.296875 0.730469 -0.609375 1.097656 -0.0820312 C 1.664062 -0.367188 2.558594 -0.8125 2.757812 -1.582031 C 3.652344 -5.113281 4.546875 -8.726562 5.355469 -12.296875 L 5.355469 -12.5 C 5.355469 -13.390625 4.667969 -14.164062 3.734375 -14.164062 C 1.015625 -14.164062 1.460938 -9.984375 1.097656 -7.953125 C 0.730469 -6.007812 0.40625 -4.179688 0 -2.273438 Z M 3.773438 -19.765625 C 4.019531 -19.5625 4.789062 -18.707031 5.03125 -18.707031 C 6.046875 -18.707031 6.816406 -21.023438 6.816406 -20.859375 C 6.816406 -21.46875 6.25 -21.792969 5.480469 -21.792969 C 4.464844 -21.792969 3.816406 -21.226562 3.773438 -19.765625 Z M 3.773438 -19.765625 "/></g></g></g><g fill="#006b37" fill-opacity="1"><g transform="translate(101.24288, 202.513038)"><g><path d="M 0.8125 -5.761719 C 0.8125 -2.394531 1.988281 -0.40625 3.773438 -0.40625 C 6.535156 -0.40625 8.886719 -5.4375 8.886719 -9.414062 C 8.886719 -10.957031 8.765625 -13.027344 7.628906 -14.164062 C 7.183594 -13.71875 6.941406 -13.71875 6.941406 -13.066406 C 6.941406 -12.132812 7.34375 -11.242188 7.34375 -10.390625 C 7.34375 -8.15625 6.453125 -5.558594 5.480469 -3.367188 C 5.316406 -2.921875 4.546875 -2.679688 4.019531 -2.3125 C 3.773438 -2.882812 3.289062 -3.570312 3.289062 -4.140625 C 3.289062 -6.574219 4.21875 -9.738281 5.84375 -11.6875 C 5.964844 -11.808594 6.046875 -12.09375 6.046875 -12.335938 C 6.046875 -13.027344 5.355469 -13.390625 4.828125 -13.390625 C 2.355469 -13.390625 0.972656 -7.671875 0.8125 -5.761719 Z M 0.8125 -5.761719 "/></g></g></g><g fill="#006b37" fill-opacity="1"><g transform="translate(111.347795, 202.513038)"><g><path d="M 2.597656 -3.003906 C 2.679688 -3.003906 2.757812 -2.960938 2.839844 -2.960938 C 2.839844 -2.636719 2.800781 -2.273438 2.800781 -1.90625 C 2.800781 -1.378906 3.164062 0.445312 4.179688 0.445312 C 4.546875 0.445312 5.152344 0.121094 5.519531 -0.203125 C 7.183594 -1.421875 7.183594 -3.488281 7.832031 -5.234375 C 7.832031 -5.398438 7.265625 -5.925781 7.101562 -5.925781 C 6.980469 -5.882812 6.859375 -5.882812 6.777344 -5.882812 C 6.332031 -5.882812 6.210938 -6.085938 6.210938 -6.410156 C 6.210938 -6.574219 6.25 -6.738281 6.289062 -6.941406 C 6.898438 -9.738281 7.386719 -16.800781 7.996094 -19.5625 C 8.402344 -21.386719 11.605469 -22.929688 13.554688 -24.269531 C 13.796875 -24.429688 13.878906 -24.796875 14.082031 -25.039062 C 13.839844 -25.078125 13.554688 -25.160156 13.3125 -25.160156 C 12.054688 -25.160156 10.550781 -23.945312 9.660156 -23.945312 C 9.132812 -23.945312 8.929688 -24.226562 8.929688 -24.917969 C 8.929688 -25.769531 9.132812 -27.148438 9.132812 -28 C 9.132812 -28.652344 9.050781 -29.339844 8.238281 -29.339844 C 6.332031 -29.339844 5.722656 -27.351562 5.722656 -25.769531 C 5.722656 -25.363281 5.761719 -24.917969 5.761719 -24.550781 C 5.761719 -22.5625 5.03125 -21.710938 2.921875 -21.347656 C 2.070312 -21.144531 0.8125 -21.023438 0.8125 -20.210938 C 0.894531 -19.722656 1.378906 -19.359375 1.785156 -19.359375 C 2.394531 -19.359375 3.042969 -19.601562 3.570312 -19.601562 C 4.300781 -19.601562 4.667969 -19.234375 4.667969 -18.503906 C 4.667969 -17.9375 4.464844 -17.449219 4.382812 -16.964844 C 3.773438 -13.757812 3.207031 -6.210938 2.597656 -3.003906 Z M 2.597656 -3.003906 "/></g></g></g><g fill="#006b37" fill-opacity="1"><g transform="translate(121.371549, 202.513038)"><g><path d="M 0.8125 -4.21875 C 0.972656 -2.355469 1.136719 0.40625 4.261719 0.40625 C 5.804688 0.40625 8.320312 -0.894531 8.320312 -2.558594 C 8.320312 -2.960938 8.074219 -3.164062 7.628906 -3.164062 C 6.816406 -3.164062 6.085938 -2.71875 5.277344 -2.71875 C 3.9375 -2.71875 4.058594 -3.855469 4.058594 -4.625 C 4.058594 -6.695312 6.128906 -7.265625 7.101562 -8.847656 C 7.871094 -10.144531 9.292969 -12.132812 9.292969 -13.554688 C 9.292969 -15.015625 8.15625 -15.867188 6.816406 -15.867188 C 2.839844 -15.867188 0.894531 -8.441406 0.8125 -4.21875 Z M 7.75 -12.660156 C 7.140625 -11.726562 6.25 -9.738281 5.640625 -9.738281 C 5.4375 -9.738281 5.152344 -10.105469 5.152344 -10.265625 C 5.152344 -10.308594 5.195312 -10.308594 5.195312 -10.347656 C 5.519531 -11.28125 6.085938 -13.59375 6.980469 -13.59375 C 7.222656 -13.59375 7.46875 -13.027344 7.75 -12.660156 Z M 7.75 -12.660156 "/></g></g></g><g fill="#006b37" fill-opacity="1"><g transform="translate(131.476464, 202.513038)"><g><path d="M 0.8125 -0.972656 C 1.136719 -0.8125 1.175781 0.894531 1.296875 1.460938 C 1.421875 1.746094 1.703125 2.027344 1.867188 2.355469 C 2.191406 2.152344 2.558594 1.988281 2.636719 1.746094 C 3.328125 0.0390625 3.976562 -1.703125 4.503906 -3.449219 C 5.03125 -4.828125 4.789062 -6.210938 6.085938 -7.34375 C 6.332031 -7.019531 6.695312 -6.738281 6.777344 -6.371094 C 6.777344 -5.679688 6.859375 -4.992188 6.859375 -4.300781 C 6.859375 -3.816406 6.738281 -3.289062 6.738281 -2.800781 C 6.738281 -1.582031 7.671875 0.203125 8.847656 0.203125 C 9.332031 0.203125 9.863281 -0.285156 9.984375 -0.933594 C 9.984375 -1.582031 8.117188 -1.625 8.117188 -2.921875 C 8.117188 -3.773438 8.359375 -4.75 8.359375 -5.640625 C 8.359375 -6.492188 7.996094 -7.183594 7.996094 -7.832031 C 7.996094 -8.804688 8.5625 -9.617188 9.253906 -10.429688 C 10.917969 -12.378906 12.417969 -15.179688 12.417969 -17.773438 C 12.417969 -18.464844 12.011719 -19.234375 10.917969 -19.234375 C 9.863281 -19.234375 8.804688 -15.503906 7.914062 -13.636719 C 7.75 -13.230469 7.34375 -13.027344 7.0625 -12.785156 C 6.941406 -13.1875 6.859375 -13.636719 6.777344 -14 C 6.777344 -14.203125 6.941406 -14.449219 6.941406 -14.609375 C 7.710938 -19.277344 8.402344 -23.863281 9.132812 -28.53125 C 9.132812 -28.652344 9.171875 -28.773438 9.171875 -28.894531 C 9.171875 -29.542969 8.765625 -30.152344 7.710938 -30.152344 C 6.210938 -30.152344 6.007812 -26.214844 5.558594 -24.066406 C 3.9375 -16.4375 2.3125 -8.886719 0.8125 -0.972656 Z M 0.8125 -0.972656 "/></g></g></g><g fill="#006b37" fill-opacity="1"><g transform="translate(143.89455, 202.513038)"><g><path d="M 7.34375 -13.71875 C 6.371094 -13.230469 5.152344 -12.945312 4.34375 -12.335938 C 2.070312 -10.632812 0.40625 -7.628906 0.40625 -4.707031 C 0.40625 -3.449219 1.175781 -2.433594 2.394531 -2.433594 C 3.773438 -2.433594 5.152344 -3.652344 5.398438 -3.652344 C 6.085938 -3.652344 5.355469 -2.433594 6.492188 -1.097656 C 6.859375 -0.609375 7.183594 -0.324219 7.546875 -0.324219 C 8.523438 -0.324219 8.726562 -1.988281 8.886719 -3.449219 C 9.171875 -5.804688 9.496094 -8.199219 9.863281 -10.550781 C 9.902344 -10.796875 9.941406 -11.078125 9.941406 -11.28125 C 9.941406 -12.703125 9.089844 -13.515625 7.34375 -13.71875 Z M 7.34375 -10.1875 C 6.167969 -8.277344 4.464844 -4.949219 3.164062 -4.949219 C 2.679688 -4.949219 2.476562 -5.679688 2.476562 -5.882812 C 2.476562 -7.019531 4.300781 -9.457031 5.355469 -10.917969 C 5.558594 -11.121094 5.925781 -11.199219 6.289062 -11.199219 C 6.816406 -11.199219 6.859375 -10.957031 7.34375 -10.1875 Z M 7.34375 -10.1875 "/></g></g></g><g fill="#006b37" fill-opacity="1"><g transform="translate(272.919918, 202.514548)"><g><path d="M 2.597656 -3.003906 C 2.679688 -3.003906 2.761719 -2.964844 2.84375 -2.964844 C 2.84375 -2.640625 2.800781 -2.273438 2.800781 -1.90625 C 2.800781 -1.378906 3.167969 0.445312 4.179688 0.445312 C 4.546875 0.445312 5.15625 0.121094 5.519531 -0.203125 C 7.1875 -1.421875 7.1875 -3.492188 7.835938 -5.238281 C 7.835938 -5.398438 7.265625 -5.925781 7.105469 -5.925781 C 6.984375 -5.886719 6.859375 -5.886719 6.78125 -5.886719 C 6.332031 -5.886719 6.210938 -6.089844 6.210938 -6.414062 C 6.210938 -6.578125 6.253906 -6.738281 6.292969 -6.941406 C 6.902344 -9.742188 7.390625 -16.808594 7.996094 -19.566406 C 8.402344 -21.394531 11.609375 -22.9375 13.558594 -24.277344 C 13.804688 -24.441406 13.882812 -24.804688 14.085938 -25.046875 C 13.84375 -25.089844 13.558594 -25.171875 13.316406 -25.171875 C 12.058594 -25.171875 10.554688 -23.953125 9.664062 -23.953125 C 9.132812 -23.953125 8.929688 -24.238281 8.929688 -24.925781 C 8.929688 -25.78125 9.132812 -27.160156 9.132812 -28.011719 C 9.132812 -28.660156 9.054688 -29.351562 8.242188 -29.351562 C 6.332031 -29.351562 5.722656 -27.363281 5.722656 -25.78125 C 5.722656 -25.375 5.765625 -24.925781 5.765625 -24.5625 C 5.765625 -22.570312 5.035156 -21.71875 2.921875 -21.355469 C 2.070312 -21.152344 0.8125 -21.03125 0.8125 -20.21875 C 0.894531 -19.730469 1.378906 -19.363281 1.785156 -19.363281 C 2.394531 -19.363281 3.042969 -19.609375 3.574219 -19.609375 C 4.304688 -19.609375 4.667969 -19.242188 4.667969 -18.511719 C 4.667969 -17.945312 4.464844 -17.457031 4.382812 -16.96875 C 3.777344 -13.761719 3.207031 -6.210938 2.597656 -3.003906 Z M 2.597656 -3.003906 "/></g></g></g><g fill="#006b37" fill-opacity="1"><g transform="translate(282.946589, 202.514548)"><g><path d="M 12.707031 -16.238281 C 12.21875 -16.929688 12.261719 -17.78125 11.40625 -17.78125 C 9.621094 -17.78125 8.363281 -15.183594 7.1875 -13.722656 C 6.78125 -13.234375 6.292969 -12.789062 5.804688 -12.339844 C 5.5625 -13.640625 5.074219 -15.46875 3.980469 -15.46875 C 1.378906 -15.46875 1.460938 -9.664062 1.21875 -7.714844 C 0.933594 -5.519531 0.570312 -3.328125 0.40625 -1.097656 C 0.40625 -0.570312 0.933594 0.0390625 1.21875 0.570312 C 2.109375 0.0390625 2.761719 -0.0820312 3.371094 -1.542969 C 4.261719 -3.695312 4.871094 -5.925781 5.886719 -7.996094 C 6.820312 -9.863281 9.296875 -14.210938 9.988281 -14.210938 C 10.472656 -14.210938 10.800781 -12.992188 11.40625 -12.992188 C 12.136719 -12.992188 12.339844 -14.738281 12.707031 -16.238281 Z M 12.707031 -16.238281 "/></g></g></g><g fill="#006b37" fill-opacity="1"><g transform="translate(293.622759, 202.514548)"><g><path d="M 0.8125 -4.222656 C 0.972656 -2.355469 1.136719 0.40625 4.261719 0.40625 C 5.804688 0.40625 8.324219 -0.894531 8.324219 -2.558594 C 8.324219 -2.964844 8.078125 -3.167969 7.632812 -3.167969 C 6.820312 -3.167969 6.089844 -2.71875 5.277344 -2.71875 C 3.9375 -2.71875 4.058594 -3.855469 4.058594 -4.628906 C 4.058594 -6.699219 6.128906 -7.265625 7.105469 -8.851562 C 7.875 -10.148438 9.296875 -12.136719 9.296875 -13.558594 C 9.296875 -15.019531 8.160156 -15.875 6.820312 -15.875 C 2.84375 -15.875 0.894531 -8.445312 0.8125 -4.222656 Z M 7.753906 -12.667969 C 7.144531 -11.734375 6.253906 -9.742188 5.644531 -9.742188 C 5.441406 -9.742188 5.15625 -10.109375 5.15625 -10.269531 C 5.15625 -10.3125 5.195312 -10.3125 5.195312 -10.351562 C 5.519531 -11.285156 6.089844 -13.601562 6.984375 -13.601562 C 7.226562 -13.601562 7.46875 -13.03125 7.753906 -12.667969 Z M 7.753906 -12.667969 "/></g></g></g><g fill="#006b37" fill-opacity="1"><g transform="translate(303.730615, 202.514548)"><g><path d="M 8.402344 -10.921875 C 8.527344 -10.839844 8.566406 -10.757812 8.6875 -10.757812 C 8.121094 -7.105469 8.039062 -3.167969 7.875 0.488281 C 7.875 0.933594 8.160156 1.339844 8.28125 1.707031 C 8.527344 1.378906 8.808594 1.015625 8.851562 0.648438 C 9.378906 -3.246094 9.863281 -7.105469 10.351562 -11 C 10.394531 -11.328125 10.433594 -11.652344 10.433594 -11.976562 C 10.433594 -12.625 10.230469 -13.398438 9.417969 -13.398438 C 8.527344 -13.398438 7.347656 -12.503906 6.78125 -11.773438 L 5.195312 -9.054688 C 5.035156 -8.769531 4.585938 -8.527344 4.304688 -8.324219 C 4.261719 -8.648438 4.101562 -9.054688 4.101562 -9.378906 C 4.101562 -10.351562 4.304688 -11.40625 4.304688 -12.382812 C 4.304688 -13.152344 4.019531 -13.882812 3.003906 -13.882812 C 2.191406 -13.882812 1.625 -13.398438 1.503906 -12.503906 L 1.257812 -10.472656 C 1.097656 -8.28125 0.8125 -5.96875 0.8125 -3.777344 C 0.8125 -3.003906 1.097656 -2.191406 2.03125 -2.191406 C 4.019531 -2.191406 5.722656 -6.617188 7.023438 -8.929688 C 7.429688 -9.621094 7.875 -10.230469 8.402344 -10.921875 Z M 8.402344 -10.921875 "/></g></g></g><g fill="#006b37" fill-opacity="1"><g transform="translate(314.975098, 202.514548)"><g><path d="M 0.8125 -4.222656 C 0.972656 -2.355469 1.136719 0.40625 4.261719 0.40625 C 5.804688 0.40625 8.324219 -0.894531 8.324219 -2.558594 C 8.324219 -2.964844 8.078125 -3.167969 7.632812 -3.167969 C 6.820312 -3.167969 6.089844 -2.71875 5.277344 -2.71875 C 3.9375 -2.71875 4.058594 -3.855469 4.058594 -4.628906 C 4.058594 -6.699219 6.128906 -7.265625 7.105469 -8.851562 C 7.875 -10.148438 9.296875 -12.136719 9.296875 -13.558594 C 9.296875 -15.019531 8.160156 -15.875 6.820312 -15.875 C 2.84375 -15.875 0.894531 -8.445312 0.8125 -4.222656 Z M 7.753906 -12.667969 C 7.144531 -11.734375 6.253906 -9.742188 5.644531 -9.742188 C 5.441406 -9.742188 5.15625 -10.109375 5.15625 -10.269531 C 5.15625 -10.3125 5.195312 -10.3125 5.195312 -10.351562 C 5.519531 -11.285156 6.089844 -13.601562 6.984375 -13.601562 C 7.226562 -13.601562 7.46875 -13.03125 7.753906 -12.667969 Z M 7.753906 -12.667969 "/></g></g></g><g fill="#006b37" fill-opacity="1"><g transform="translate(325.082954, 202.514548)"><g><path d="M 12.707031 -16.238281 C 12.21875 -16.929688 12.261719 -17.78125 11.40625 -17.78125 C 9.621094 -17.78125 8.363281 -15.183594 7.1875 -13.722656 C 6.78125 -13.234375 6.292969 -12.789062 5.804688 -12.339844 C 5.5625 -13.640625 5.074219 -15.46875 3.980469 -15.46875 C 1.378906 -15.46875 1.460938 -9.664062 1.21875 -7.714844 C 0.933594 -5.519531 0.570312 -3.328125 0.40625 -1.097656 C 0.40625 -0.570312 0.933594 0.0390625 1.21875 0.570312 C 2.109375 0.0390625 2.761719 -0.0820312 3.371094 -1.542969 C 4.261719 -3.695312 4.871094 -5.925781 5.886719 -7.996094 C 6.820312 -9.863281 9.296875 -14.210938 9.988281 -14.210938 C 10.472656 -14.210938 10.800781 -12.992188 11.40625 -12.992188 C 12.136719 -12.992188 12.339844 -14.738281 12.707031 -16.238281 Z M 12.707031 -16.238281 "/></g></g></g><g fill="#006b37" fill-opacity="1"><g transform="translate(335.759124, 202.514548)"><g><path d="M 7.347656 -13.722656 C 6.375 -13.234375 5.15625 -12.949219 4.34375 -12.339844 C 2.070312 -10.636719 0.40625 -7.632812 0.40625 -4.710938 C 0.40625 -3.449219 1.175781 -2.4375 2.394531 -2.4375 C 3.777344 -2.4375 5.15625 -3.652344 5.398438 -3.652344 C 6.089844 -3.652344 5.359375 -2.4375 6.496094 -1.097656 C 6.859375 -0.609375 7.1875 -0.324219 7.550781 -0.324219 C 8.527344 -0.324219 8.726562 -1.988281 8.890625 -3.449219 C 9.175781 -5.804688 9.5 -8.199219 9.863281 -10.554688 C 9.90625 -10.800781 9.945312 -11.082031 9.945312 -11.285156 C 9.945312 -12.707031 9.09375 -13.519531 7.347656 -13.722656 Z M 7.347656 -10.191406 C 6.171875 -8.28125 4.464844 -4.953125 3.167969 -4.953125 C 2.679688 -4.953125 2.476562 -5.683594 2.476562 -5.886719 C 2.476562 -7.023438 4.304688 -9.460938 5.359375 -10.921875 C 5.5625 -11.125 5.925781 -11.203125 6.292969 -11.203125 C 6.820312 -11.203125 6.859375 -10.960938 7.347656 -10.191406 Z M 7.347656 -10.191406 "/></g></g></g><g clip-path="url(#6c8e2d5661)"><g clip-path="url(#1e5ca7eaa0)"><path fill="#000000" d="M 161.496094 137.699219 L 269.03125 137.699219 L 269.03125 245.234375 L 161.496094 245.234375 Z M 161.496094 137.699219 " fill-opacity="1" fill-rule="nonzero"/></g></g><path fill="#ffffff" d="M 211.316406 247.65625 C 188.035156 246.046875 167.597656 227.519531 161.828125 205.085938 C 156.507812 181.828125 167.078125 155.636719 187.699219 143.488281 C 200.964844 135.492188 217.609375 134.492188 232.292969 138.65625 C 250.429688 144.285156 264.230469 160.578125 269.078125 178.753906 C 273.429688 195.503906 270.292969 214.523438 258.722656 227.722656 C 248.242188 240.902344 231.492188 248.496094 214.738281 247.816406 C 213.597656 247.792969 212.457031 247.738281 211.316406 247.65625 Z M 225.191406 245.023438 C 229.367188 244.652344 228.632812 243.359375 224.832031 243.03125 C 218.046875 241.714844 210.714844 241.679688 204.164062 243.992188 C 209.933594 246.800781 217.59375 246.078125 224.046875 245.238281 Z M 204.625 241.316406 C 207.605469 238.246094 204.496094 230.90625 201.890625 228 C 196.066406 225 191.554688 220.097656 186.226562 216.402344 C 182.214844 214.925781 178.304688 217.730469 174.425781 218.679688 C 174.410156 222.546875 174.160156 226.914062 177.53125 229.601562 C 183.082031 235.132812 189.78125 239.984375 197.34375 242.1875 C 199.769531 242.300781 202.320312 242.152344 204.625 241.316406 Z M 236.542969 241.472656 C 246.203125 237.269531 255.265625 230.515625 260.714844 221.320312 C 262.675781 218.675781 264.117188 214.046875 258.992188 215.578125 C 252.558594 219.660156 246.746094 224.714844 240.152344 228.582031 C 236.15625 231.773438 233.273438 236.167969 230.433594 240.367188 C 231.425781 242.691406 234.644531 242.136719 236.542969 241.472656 Z M 243.09375 224.582031 C 247.949219 220.5625 254.976562 217.972656 257.523438 211.871094 C 258.675781 207.078125 258.765625 202.113281 259.246094 197.222656 C 254.410156 192.890625 248.464844 189.949219 242.65625 187.175781 C 236.914062 187.636719 232.273438 192.78125 227.730469 196.117188 C 225.3125 197.464844 225.933594 200.492188 225.277344 202.816406 C 224.394531 208.246094 223.375 213.660156 222.789062 219.132812 C 227.308594 222.503906 232.351562 225.601562 237.84375 226.902344 C 239.832031 226.925781 241.480469 225.570312 243.09375 224.582031 Z M 208.457031 225.429688 C 212.855469 223.734375 218.671875 222.457031 220.738281 217.757812 C 222.269531 211.167969 223.121094 204.429688 223.929688 197.71875 C 219.558594 193.527344 214.894531 189.109375 209.164062 186.921875 C 204.222656 186.839844 200.035156 190.367188 195.636719 192.292969 C 189.71875 193.914062 187.664062 199.34375 187.40625 204.949219 C 185.671875 210.496094 187.664062 216.191406 192.652344 219.25 C 197.011719 222.492188 202.609375 227.65625 208.457031 225.429688 Z M 171.648438 217.65625 C 168.078125 211 165.617188 203.714844 164.636719 196.214844 C 161.105469 196.933594 164.3125 205.667969 165.285156 209.230469 C 166.949219 214.042969 169.496094 218.46875 172.132812 222.792969 C 172.617188 221.015625 172.902344 219.246094 171.644531 217.65625 Z M 170.109375 188.03125 C 171.667969 185.789062 174.148438 184.019531 175.082031 181.453125 C 176.730469 173.695312 179.421875 166.203125 183.269531 159.261719 C 183.109375 154.78125 178.144531 152.054688 175.671875 156.996094 C 168.628906 166.140625 163.101562 177.285156 162.859375 189.042969 C 161.933594 193.078125 165.414062 196.011719 167.417969 191.234375 C 168.316406 190.167969 169.214844 189.101562 170.109375 188.03125 Z M 260.816406 193.59375 C 263.804688 189.644531 267.929688 184.953125 266.855469 179.601562 C 264.988281 169.457031 259.820312 159.824219 251.882812 153.210938 C 249.527344 152.203125 245.21875 148.496094 243.574219 151.996094 C 241.144531 156.703125 235.101562 161.152344 237.28125 167.011719 C 239.144531 172.796875 240.507812 178.839844 243.230469 184.289062 C 248.234375 188.226562 254.03125 191.289062 259.863281 193.871094 Z M 194.21875 190.960938 C 198.839844 188.609375 203.332031 186.007812 207.835938 183.441406 C 209.355469 178.089844 211.265625 172.859375 213.042969 167.597656 C 213.289062 161.90625 208.253906 157.816406 204.882812 153.828125 C 201.574219 148.488281 195.976562 152.582031 191.890625 154.535156 C 182.902344 159.375 180.839844 170.027344 177.785156 178.921875 C 178.207031 182.25 181.234375 185.03125 183.441406 187.519531 C 186.492188 190.609375 189.921875 194.734375 194.21875 190.960938 Z M 227.371094 162.195312 C 229.761719 161.863281 232.433594 162.105469 234.652344 161.425781 C 237.972656 157.820312 240.894531 153.597656 242.277344 148.863281 C 240.609375 144.089844 235.078125 141.914062 230.636719 140.289062 C 224.980469 138.589844 218.921875 137.757812 213.046875 138.429688 C 208.808594 140.613281 201.207031 146.945312 205.5 151.851562 C 208.644531 155.625 211.992188 159.222656 215.398438 162.753906 C 219.398438 162.792969 223.386719 162.480469 227.371094 162.195312 Z M 227.371094 162.195312 " fill-opacity="1" fill-rule="nonzero"/><g clip-path="url(#143f849ed1)"><path fill="#006b37" d="M 257.976562 147.167969 C 256.796875 145.011719 255.5 142.929688 254.089844 140.933594 C 254.164062 141.105469 254.234375 141.28125 254.304688 141.453125 C 257.550781 149.421875 259.339844 158.132812 259.339844 167.253906 C 259.339844 186.164062 251.671875 203.285156 239.277344 215.679688 C 226.886719 228.074219 209.761719 235.738281 190.851562 235.738281 C 181.730469 235.738281 173.019531 233.953125 165.050781 230.707031 C 164.878906 230.636719 164.707031 230.566406 164.535156 230.492188 C 166.53125 231.902344 168.609375 233.199219 170.765625 234.378906 C 179.890625 239.363281 190.375 242.195312 201.53125 242.195312 C 219.277344 242.195312 235.34375 235.003906 246.972656 223.375 C 258.601562 211.746094 265.792969 195.679688 265.792969 177.933594 C 265.792969 166.773438 262.960938 156.292969 257.976562 147.167969 " fill-opacity="1" fill-rule="nonzero"/></g></svg>